<?xml version="1.0" encoding="UTF-8"?>
<svg xmlns="http://www.w3.org/2000/svg" xmlns:xlink="http://www.w3.org/1999/xlink" width="117px" height="134px" viewBox="0 0 117 133" version="1.1">
<g id="surface1">
<path style=" stroke:none;fill-rule:nonzero;fill:rgb(91.37255%,79.215688%,19.607843%);fill-opacity:1;" d="M 9.796875 119.066406 L 0 0.222656 L 117 0.460938 L 106.640625 119.066406 L 58.941406 132.777344 Z M 9.796875 119.066406 "/>
<path style=" stroke:none;fill-rule:nonzero;fill:rgb(100%,87.058824%,14.509805%);fill-opacity:1;" d="M 58.941406 121.300781 L 58.941406 11.542969 L 107.121094 11.699219 L 98.53125 109.902344 Z M 58.941406 121.300781 "/>
<path style=" stroke:none;fill-rule:nonzero;fill:rgb(100%,100%,100%);fill-opacity:1;" d="M 53.78125 24.574219 L 41.046875 24.574219 L 41.046875 97.625 L 31.136719 95.753906 L 31.136719 85.917969 L 19.34375 84.046875 L 19.34375 106.054688 L 53.78125 114.953125 Z M 63.339844 24.574219 L 98.597656 24.574219 L 96.242188 38.574219 L 76.800781 38.574219 L 76.800781 61.554688 L 96.242188 61.554688 L 93.882812 107.929688 L 63.339844 114.953125 L 63.339844 100.433594 L 83.972656 93.410156 L 85.167969 74.210938 L 63.339844 77.347656 Z M 63.339844 24.574219 "/>
</g>
</svg>
