<?xml version="1.0" encoding="UTF-8"?>
<svg xmlns="http://www.w3.org/2000/svg" xmlns:xlink="http://www.w3.org/1999/xlink" width="108px" height="124px" viewBox="0 0 108 123" version="1.1">
<g id="surface1">
<path style=" stroke:none;fill-rule:nonzero;fill:rgb(91.37255%,79.215688%,19.607843%);fill-opacity:1;" d="M 9.042969 109.75 L 0 0.664062 L 108 0.882812 L 98.4375 109.75 L 54.40625 122.335938 Z M 9.042969 109.75 "/>
<path style=" stroke:none;fill-rule:nonzero;fill:rgb(100%,87.058824%,14.509805%);fill-opacity:1;" d="M 54.40625 111.800781 L 54.40625 11.054688 L 98.882812 11.199219 L 90.953125 101.339844 Z M 54.40625 111.800781 "/>
<path style=" stroke:none;fill-rule:nonzero;fill:rgb(100%,100%,100%);fill-opacity:1;" d="M 49.644531 23.015625 L 37.890625 23.015625 L 37.890625 90.070312 L 28.742188 88.351562 L 28.742188 79.324219 L 17.855469 77.605469 L 17.855469 97.808594 L 49.644531 105.976562 Z M 58.46875 23.015625 L 91.011719 23.015625 L 88.839844 35.867188 L 70.894531 35.867188 L 70.894531 56.960938 L 88.839844 56.960938 L 86.660156 99.527344 L 58.46875 105.976562 L 58.46875 92.648438 L 77.511719 86.199219 L 78.617188 68.578125 L 58.46875 71.457031 Z M 58.46875 23.015625 "/>
</g>
</svg>
